DataType=double																
version=3																
OpenSimVersion=4.4-2022-07-23-0e9fedc																
endheader																
time	InvAntDelt	InvMedDelt	InvPosDelt	InvUpperTrap	NinvAntDelt	NinvMedDelt	NinvPosDelt	NinvUpperTrap	InvAntDelt	InvMedDelt	InvPosDelt	InvUpperTrap	NinvAntDelt	NinvMediDelt	NinvPosDelt	NinvUpperTrap
1.095	24	6	37	60	34	29	150	2	-26	2	-21	-81	-30	22	-66	-30
1.09525	24	7	32	63	32	28	152	3	-29	1	-29	-80	-30	20	-75	-26
1.0955	28	6	34	63	33	26	151	3	-28	2	-26	-77	-33	24	-69	-29
1.09575	23	9	38	63	31	29	148	5	-30	4	-28	-77	-33	33	-52	-29
1.096	22	9	36	62	35	26	147	0	-27	4	-27	-77	-28	42	-14	-29
1.09625	22	3	31	68	32	28	143	5	-21	3	-31	-76	-31	54	30	-24
1.0965	23	7	32	59	31	24	143	4	-22	6	-28	-78	-30	57	85	-25
1.09675	23	9	34	65	30	26	140	3	-24	7	-27	-76	-30	63	135	-24
1.097	19	6	33	66	35	29	141	-1	-22	4	-29	-77	-32	68	177	-24
1.09725	22	8	30	64	32	24	142	5	-20	6	-34	-83	-37	65	199	-18
1.0975	24	10	35	62	34	24	144	4	-21	9	-31	-80	-38	61	214	-18
1.09775	23	13	33	65	35	30	145	7	-20	8	-32	-83	-41	68	212	-19
1.098	21	8	33	65	35	29	146	7	-19	9	-33	-87	-42	72	198	-20
1.09825	21	8	26	65	34	26	146	5	-16	13	-34	-85	-44	73	182	-21
1.0985	26	3	36	63	34	27	145	5	-15	7	-30	-84	-46	74	170	-24
1.09875	22	8	33	63	37	26	147	4	-18	8	-27	-86	-50	81	154	-25
1.099	22	8	33	64	39	27	149	2	-17	10	-32	-91	-47	82	142	-22
1.09925	27	8	31	65	39	25	145	6	-11	7	-36	-88	-46	79	134	-24
1.0995	22	7	34	66	40	25	147	5	-9	6	-28	-86	-47	79	123	-26
1.09975	20	12	31	65	40	28	147	2	-11	8	-24	-86	-41	81	110	-24
1.1	21	4	34	64	41	27	148	2	-7	9	-27	-85	-40	77	98	-23
1.10025	20	5	30	61	40	26	143	7	-1	8	-24	-84	-37	76	90	-23
1.1005	19	8	29	64	39	25	143	5	-5	7	-19	-85	-36	76	75	-22
1.10075	16	10	29	68	42	29	143	3	-9	11	-21	-84	-36	70	83	-23
1.101	20	6	30	66	43	28	142	2	-3	7	-20	-88	-35	65	105	-24
1.10125	19	10	28	67	41	27	140	7	-3	9	-21	-85	-35	60	138	-20
1.1015	20	13	28	66	42	26	142	6	-3	9	-19	-75	-37	59	190	-18
1.10175	20	12	30	68	42	28	142	6	-1	14	-17	-71	-36	59	246	-16
1.102	20	7	31	65	45	31	145	6	-1	11	-19	-71	-32	69	295	-11
1.10225	14	11	23	66	43	29	148	4	0	12	-19	-67	-29	73	325	-7
1.1025	20	7	26	63	44	24	151	2	1	14	-14	-63	-27	78	339	-7
1.10275	20	8	29	66	42	26	151	4	1	19	-13	-60	-31	92	332	-5
1.103	15	9	26	65	46	25	153	5	-2	15	-13	-65	-28	104	308	-4
1.10325	18	10	24	65	47	24	158	3	-1	12	-18	-61	-26	110	279	2
1.1035	21	7	28	64	52	23	162	1	1	11	-11	-61	-30	115	251	-2
1.10375	16	11	30	65	48	23	162	4	0	13	-10	-61	-31	122	225	-1
1.104	14	11	26	64	54	25	164	3	5	15	-11	-64	-28	128	206	-6
1.10425	16	3	24	65	52	26	164	4	8	18	-17	-61	-31	128	181	-4
1.1045	15	6	24	63	51	24	162	4	8	14	-8	-61	-31	118	152	-10
1.10475	12	12	24	65	52	21	163	1	7	16	-5	-62	-30	109	109	-15
1.105	15	10	24	63	56	21	162	0	9	14	-9	-62	-29	89	58	-21
1.10525	17	8	22	66	54	27	153	3	6	8	-9	-60	-32	58	-4	-21
1.1055	13	10	21	64	53	24	155	5	9	4	-7	-63	-34	16	-63	-22
1.10575	15	14	23	63	52	25	156	4	10	7	-7	-56	-37	-21	-117	-26
1.106	16	10	24	65	54	26	155	3	10	6	-5	-54	-32	-56	-160	-32
1.10625	10	7	22	64	53	26	156	6	12	6	-7	-52	-31	-90	-190	-27
1.1065	13	8	19	64	55	21	157	6	14	8	-2	-49	-32	-110	-204	-28
1.10675	16	9	19	62	52	23	156	6	12	12	-5	-44	-32	-111	-206	-25
1.107	21	9	21	61	52	25	156	7	12	7	-4	-41	-27	-105	-196	-25
1.10725	13	10	19	61	58	21	156	4	14	1	-6	-39	-24	-94	-184	-16
1.1075	13	6	24	60	61	20	158	3	9	-3	-3	-38	-26	-87	-164	-11
1.10775	16	10	20	59	57	24	158	3	11	2	-7	-34	-29	-85	-151	-9
1.108	21	10	20	60	54	23	156	1	15	3	-1	-34	-28	-94	-148	-7
1.10825	14	10	21	60	56	20	157	2	15	3	-2	-27	-28	-106	-154	-2
1.1085	16	8	21	59	62	21	160	5	11	2	1	-22	-31	-127	-155	-1
1.10875	14	4	18	59	57	23	160	3	11	3	3	-22	-32	-148	-171	2
1.109	15	7	17	51	61	22	157	0	14	1	7	-19	-31	-167	-191	6
1.10925	14	13	14	56	62	19	156	3	8	0	6	-13	-30	-186	-201	10
1.1095	14	8	17	58	61	22	156	3	8	-5	5	-13	-33	-195	-210	12
1.10975	12	7	17	55	63	25	158	4	8	-10	8	-18	-29	-208	-219	14
1.11	17	10	15	51	69	23	158	0	9	-4	7	-10	-32	-215	-232	14
1.11025	18	10	15	56	69	22	157	4	7	-6	10	-9	-34	-223	-240	15
1.1105	14	4	18	54	73	22	162	6	7	-7	9	-13	-38	-220	-253	18
1.11075	10	9	12	51	72	20	164	7	7	-7	11	-16	-43	-219	-265	21
1.111	16	8	12	48	76	22	164	3	6	-8	9	-14	-49	-211	-280	22
1.11125	16	6	16	49	82	20	165	4	6	-14	15	-15	-51	-207	-291	20
1.1115	14	5	18	48	82	23	171	5	1	-14	12	-21	-56	-196	-296	21
1.11175	12	7	15	49	84	23	171	4	8	-14	9	-22	-57	-187	-298	14
1.112	14	6	18	46	87	23	171	5	8	-14	14	-27	-60	-182	-291	16
1.11225	15	8	14	48	88	23	175	5	8	-18	17	-29	-54	-177	-268	17
1.1125	13	1	16	50	86	26	178	5	8	-15	14	-27	-53	-174	-244	17
1.11275	10	4	17	43	88	21	177	5	15	-15	16	-24	-49	-172	-216	15
1.113	13	7	17	41	89	22	173	6	12	-11	18	-18	-46	-176	-182	18
1.11325	13	8	12	47	89	21	176	5	13	-10	16	-12	-42	-184	-147	17
1.1135	11	6	14	46	88	27	176	6	14	-13	13	-10	-41	-187	-112	14
1.11375	11	2	17	41	95	24	175	7	14	-13	14	-11	-36	-194	-84	11
1.114	12	7	13	43	94	26	170	8	14	-7	13	-10	-35	-196	-60	13
1.11425	15	9	13	46	95	23	169	9	15	-5	13	-7	-35	-200	-35	10
1.1145	13	8	17	46	98	26	167	8	12	-6	16	-11	-36	-196	-12	9
1.11475	13	4	19	41	102	27	165	8	15	-7	15	-16	-30	-194	9	8
1.115	9	6	15	42	99	25	160	10	18	-8	13	-17	-30	-192	29	12
1.11525	13	4	15	42	103	22	160	9	14	-4	13	-16	-28	-185	49	10
1.1155	16	4	15	39	96	24	156	7	15	-1	13	-13	-22	-179	67	8
